<svg width="838" height="396" viewBox="0 0 838 396" fill="none" xmlns="http://www.w3.org/2000/svg">
<path d="M334.895 198C334.895 89.7522 305.4 1.99999 269.016 2C232.632 2 203.138 89.7522 203.138 198C203.138 306.248 232.632 394 269.016 394C305.4 394 334.895 306.248 334.895 198Z" stroke="black" stroke-width="3" stroke-miterlimit="10"/>
<path d="M369.173 198C369.173 89.7523 339.678 2.00012 303.294 2.00012C266.911 2.00012 237.416 89.7523 237.416 198C237.416 306.248 266.911 394 303.294 394C339.678 394 369.173 306.248 369.173 198Z" stroke="black" stroke-width="3" stroke-miterlimit="10"/>
<path d="M703.385 198C703.385 89.7522 673.411 1.99999 636.435 2C599.46 2 569.486 89.7522 569.486 198C569.486 306.248 599.46 394 636.435 394C673.411 394 703.385 306.248 703.385 198Z" stroke="black" stroke-width="3" stroke-miterlimit="10"/>
<path d="M836.327 198C836.327 89.7522 806.353 1.99999 769.378 2C732.402 2 702.428 89.7522 702.428 198C702.428 306.248 732.402 394 769.378 394C806.353 394 836.327 306.248 836.327 198Z" stroke="black" stroke-width="3" stroke-miterlimit="10"/>
<path d="M402.38 198C402.38 89.7523 372.885 2.00012 336.501 2.00012C300.118 2.00012 270.623 89.7523 270.623 198C270.623 306.248 300.118 394 336.501 394C372.885 394 402.38 306.248 402.38 198Z" stroke="black" stroke-width="3" stroke-miterlimit="10"/>
<path d="M436.658 198C436.658 89.7522 406.683 1.99999 369.708 2C332.733 2 302.759 89.7522 302.759 198C302.759 306.248 332.733 394 369.708 394C406.683 394 436.658 306.248 436.658 198Z" stroke="black" stroke-width="3" stroke-miterlimit="10"/>
<path d="M469.865 198C469.865 89.7523 440.13 2.00012 403.451 2.00012C366.771 2.00012 337.037 89.7523 337.037 198C337.037 306.248 366.771 394 403.451 394C440.13 394 469.865 306.248 469.865 198Z" stroke="black" stroke-width="3" stroke-miterlimit="10"/>
<path d="M504.143 198C504.143 89.7523 474.169 2.00012 437.193 2.00012C400.218 2.00012 370.244 89.7523 370.244 198C370.244 306.248 400.218 394 437.193 394C474.169 394 504.143 306.248 504.143 198Z" stroke="black" stroke-width="3" stroke-miterlimit="10"/>
<path d="M536.279 198C536.279 89.7523 506.784 2.00012 470.4 2.00012C434.017 2.00012 404.522 89.7523 404.522 198C404.522 306.248 434.017 394 470.4 394C506.784 394 536.279 306.248 536.279 198Z" stroke="black" stroke-width="3" stroke-miterlimit="10"/>
<path d="M603.764 198C603.764 89.7523 573.79 2.00012 536.814 2.00012C499.839 2.00012 469.865 89.7523 469.865 198C469.865 306.248 499.839 394 536.814 394C573.79 394 603.764 306.248 603.764 198Z" stroke="black" stroke-width="3" stroke-miterlimit="10"/>
<path d="M736.706 198C736.706 89.7523 706.732 2.00012 669.756 2.00012C632.781 2.00012 602.807 89.7523 602.807 198C602.807 306.248 632.781 394 669.756 394C706.732 394 736.706 306.248 736.706 198Z" stroke="black" stroke-width="3" stroke-miterlimit="10"/>
<path d="M569.486 198C569.486 89.7523 539.751 2.00012 503.072 2.00012C466.392 2.00012 436.658 89.7523 436.658 198C436.658 306.248 466.392 394 503.072 394C539.751 394 569.486 306.248 569.486 198Z" stroke="black" stroke-width="3" stroke-miterlimit="10"/>
<path d="M635.9 198C635.9 89.7523 606.405 2.00012 570.021 2.00012C533.638 2.00012 504.143 89.7523 504.143 198C504.143 306.248 533.638 394 570.021 394C606.405 394 635.9 306.248 635.9 198Z" stroke="black" stroke-width="3" stroke-miterlimit="10"/>
<path d="M768.842 198C768.842 89.7523 739.347 2.00012 702.963 2.00012C666.58 2.00012 637.085 89.7523 637.085 198C637.085 306.248 666.58 394 702.963 394C739.347 394 768.842 306.248 768.842 198Z" stroke="black" stroke-width="3" stroke-miterlimit="10"/>
<path d="M670.178 198C670.178 89.7523 640.444 2.00012 603.764 2.00012C567.085 2.00012 537.35 89.7523 537.35 198C537.35 306.248 567.085 394 603.764 394C640.444 394 670.178 306.248 670.178 198Z" stroke="black" stroke-width="3" stroke-miterlimit="10"/>
<path d="M803.12 198C803.12 89.7523 773.386 2.00012 736.706 2.00012C700.027 2.00012 670.292 89.7523 670.292 198C670.292 306.248 700.027 394 736.706 394C773.386 394 803.12 306.248 803.12 198Z" stroke="black" stroke-width="3" stroke-miterlimit="10"/>
<path d="M135.899 198C135.899 89.7523 105.925 2.00012 68.9496 2.00012C31.9743 2.00012 1.99999 89.7523 1.99999 198C2 306.248 31.9744 394 68.9496 394C105.925 394 135.899 306.248 135.899 198Z" stroke="black" stroke-width="3" stroke-miterlimit="10"/>
<path d="M168.035 198C168.035 89.7523 138.54 2.00012 102.157 2.00012C65.7731 2.00012 36.2783 89.7523 36.2783 198C36.2783 306.248 65.7731 394 102.157 394C138.54 394 168.035 306.248 168.035 198Z" stroke="black" stroke-width="3" stroke-miterlimit="10"/>
<path d="M235.52 198C235.52 89.7523 205.546 2.00012 168.571 2.00012C131.595 2.00012 101.621 89.7523 101.621 198C101.621 306.248 131.595 394 168.571 394C205.546 394 235.52 306.248 235.52 198Z" stroke="black" stroke-width="3" stroke-miterlimit="10"/>
<path d="M201.242 198C201.242 89.7523 171.508 2.00012 134.828 2.00012C98.1486 2.00012 68.4141 89.7523 68.4141 198C68.4141 306.248 98.1486 394 134.828 394C171.508 394 201.242 306.248 201.242 198Z" stroke="black" stroke-width="3" stroke-miterlimit="10"/>
<path d="M267.656 198C267.656 89.7523 238.161 2.00012 201.778 2.00012C165.394 2.00012 135.899 89.7523 135.899 198C135.899 306.248 165.394 394 201.778 394C238.161 394 267.656 306.248 267.656 198Z" stroke="black" stroke-width="3" stroke-miterlimit="10"/>
<path d="M301.934 198C301.934 89.7523 272.2 2.00012 235.52 2.00012C198.841 2.00012 169.106 89.7523 169.106 198C169.106 306.248 198.841 394 235.52 394C272.2 394 301.934 306.248 301.934 198Z" stroke="black" stroke-width="3" stroke-miterlimit="10"/>
</svg>
